<svg width="176" height="84" viewBox="0 0 176 84" fill="none" xmlns="http://www.w3.org/2000/svg">
<path d="M56.5129 60.4294C55.4678 61.3688 54.5265 62.3387 53.4662 63.1487C44.5564 69.9634 31.737 67.46 26.0384 57.7913C25.6184 57.0779 25.3299 56.7986 24.4012 57.0753C12.9559 60.4852 1.74845 53.3759 0.182085 41.5161C-0.711171 34.7521 1.69784 29.0444 6.9182 24.6214C7.53563 24.0984 7.77856 23.654 7.69505 22.8339C6.64491 12.6626 13.0799 5.33237 19.9577 2.97615C25.9802 0.911912 31.646 1.69393 36.9549 5.19272C37.1295 5.30952 37.299 5.43647 37.4736 5.55326C37.5065 5.57612 37.5546 5.57358 37.5951 5.58119C47.3829 -3.84116 60.5591 -0.0960841 66.2324 7.69621C72.303 3.44587 78.8316 2.40486 85.6386 5.58373C92.4607 8.77276 95.9123 14.4323 96.5677 21.9757C99.67 22.8568 102.413 24.4107 104.647 26.8227C109.187 31.7231 110.298 39.0482 107.391 45.1165C104.486 51.1797 98.215 54.9095 91.5776 54.3636C90.201 54.2494 89.5482 54.6328 88.8624 55.8236C82.3793 67.0639 66.9182 69.5623 57.1683 61.0057C56.9532 60.8128 56.7356 60.6223 56.5129 60.4294Z" fill="white"/>
<path d="M149.997 80.7638C149.479 81.2265 149.013 81.7042 148.488 82.1032C144.074 85.4597 137.723 84.2266 134.9 79.4645C134.692 79.113 134.549 78.9755 134.089 79.1118C128.418 80.7913 122.866 77.2897 122.09 71.4483C121.648 68.1168 122.841 65.3055 125.427 63.127C125.733 62.8694 125.854 62.6506 125.812 62.2466C125.292 57.2369 128.48 53.6265 131.887 52.4659C134.871 51.4492 137.678 51.8344 140.308 53.5577C140.394 53.6152 140.478 53.6777 140.565 53.7353C140.581 53.7465 140.605 53.7453 140.625 53.749C145.474 49.1082 152.002 50.9527 154.812 54.7907C157.82 52.6973 161.054 52.1846 164.426 53.7503C167.806 55.321 169.516 58.1085 169.841 61.8239C171.378 62.2579 172.737 63.0232 173.844 64.2113C176.093 66.6249 176.643 70.2328 175.203 73.2216C173.763 76.208 170.657 78.0451 167.369 77.7762C166.687 77.7199 166.363 77.9088 166.024 78.4953C162.812 84.0315 155.152 85.2621 150.322 81.0477C150.215 80.9526 150.107 80.8588 149.997 80.7638Z" fill="white"/>
</svg>
