<svg width="162" height="165" viewBox="0 0 162 165" fill="none" xmlns="http://www.w3.org/2000/svg">
<g clip-path="url(#clip0_1_5431)">
<path d="M62.0925 120.374C59.101 113.8 56.1037 107.229 53.1515 100.638C58.5646 97.1477 63.5692 93.0763 68.0728 88.4689C68.93 87.5918 68.1997 85.9558 66.9542 86.0598C59.4872 86.6823 52.0281 87.3712 44.5682 88.067C43.3566 81.6692 41.6555 75.3886 39.5187 69.2336C39.0467 67.8734 37.3788 68.159 36.9494 69.3485C35.5829 73.1328 34.2165 76.9171 32.8501 80.7014C31.7939 83.6267 30.6414 86.5787 30.1856 89.6537C24.2206 87.6667 16.8298 88.9514 10.9263 90.5429C9.78325 90.8514 9.7652 92.4172 10.7126 92.9565C16.3772 96.177 22.2758 98.8374 28.4051 101.011C26.5884 107.932 25.2417 114.918 24.3761 122.029C24.1737 123.69 25.6984 124.686 27.1661 123.984C34.1223 120.656 40.4371 116.46 45.8621 111.002C50.3573 114.702 54.8489 118.406 59.3531 122.096C60.5068 123.041 62.8466 122.032 62.0925 120.374Z" fill="#FFC909"/>
<path d="M97.1545 59.844C97.7291 55.1848 98.3003 50.5251 98.9031 45.8696C103.096 45.7726 107.26 45.2147 111.328 44.1896C112.102 43.9948 112.253 42.8398 111.526 42.4745C107.168 40.2851 102.791 38.1346 98.4123 35.9884C99.9155 32.0309 101.107 27.9727 102.015 23.8356C102.215 22.9214 101.192 22.5136 100.549 23.0277C98.503 24.6616 96.4571 26.2955 94.4114 27.9288C92.8296 29.1918 91.1858 30.4371 89.8869 31.9865C87.2507 28.8602 82.7095 27.0633 78.8896 25.9418C78.1505 25.7248 77.6074 26.5866 77.95 27.2069C80.0002 30.9146 82.3707 34.3916 85.0343 37.6774C81.6722 40.8964 78.5476 44.3114 75.648 47.9591C74.9704 48.8115 75.4783 49.8811 76.5318 49.9898C81.5261 50.5069 86.4603 50.3241 91.3298 49.1399C92.5672 52.7167 93.802 56.2942 95.0476 59.8679C95.367 60.784 97.0096 61.0188 97.1545 59.844Z" fill="#FFC909"/>
<path d="M128.984 115.819C125.943 112.234 122.899 108.652 119.88 105.049C122.645 101.903 125.052 98.4657 127.05 94.7825C127.43 94.0812 126.682 93.1864 125.921 93.4727C121.361 95.188 116.817 96.9434 112.275 98.7032C110.379 94.9127 108.197 91.2822 105.766 87.8078C105.228 87.0402 104.236 87.5146 104.179 88.3359C103.997 90.948 103.815 93.5601 103.634 96.1716C103.494 98.1909 103.298 100.243 103.56 102.25C99.475 102.064 95.0797 104.18 91.6698 106.225C91.0097 106.621 91.2767 107.605 91.9654 107.774C96.0817 108.785 100.246 109.403 104.466 109.676C104.561 114.331 104.961 118.945 105.684 123.551C105.853 124.627 106.984 124.98 107.777 124.28C111.537 120.962 114.741 117.213 117.164 112.833C120.635 114.352 124.103 115.873 127.577 117.384C128.466 117.77 129.751 116.723 128.984 115.819Z" fill="#FFC909"/>
</g>
<defs>
<clipPath id="clip0_1_5431">
<rect width="117" height="125" fill="white" transform="translate(57.9066) rotate(27.5972)"/>
</clipPath>
</defs>
</svg>
