<svg width="83" height="83" viewBox="0 0 83 83" fill="none" xmlns="http://www.w3.org/2000/svg">
<rect width="83" height="83" rx="10" fill="white"/>
<g clip-path="url(#clip0_0_1)">
<path d="M41.4623 46.8288C33.0219 46.8288 24.5815 46.8313 16.1411 46.8275C14.1326 46.8262 12.6205 45.7042 12.1403 43.8401C12.0312 43.4155 12.0062 42.9577 12.0062 42.5166C11.9961 38.1393 11.9999 33.7621 12.0024 29.3849C12.0024 26.6843 13.6461 25 16.284 25C33.0808 25 49.8788 25 66.6756 25.0013C69.3136 25.0013 70.9823 26.6945 70.9836 29.3709C70.9848 33.7481 70.9422 38.1253 70.9999 42.5013C71.0325 44.9761 69.1744 46.8721 66.7208 46.8543C58.3017 46.7918 49.8814 46.8288 41.4623 46.8288ZM41.1488 39.7638C33.4594 39.7638 25.7713 39.7638 18.0819 39.7638C17.8099 39.7638 17.5002 39.6873 17.2783 39.7956C17.0426 39.9091 16.7429 40.1985 16.7417 40.414C16.7391 40.6308 17.0375 40.8998 17.2657 41.0503C17.4149 41.1485 17.672 41.0809 17.8813 41.0809C22.1015 41.0821 26.3217 41.0809 30.5432 41.0809C41.9086 41.0809 53.2753 41.0796 64.6408 41.0847C65.1197 41.0847 65.5761 41.0286 65.5811 40.4293C65.5861 39.8313 65.1385 39.737 64.6546 39.7625C64.5292 39.7689 64.4038 39.7638 64.2784 39.7638C56.569 39.7638 48.8595 39.7638 41.1488 39.7638ZM41.1526 44.1346C48.8834 44.1346 56.6141 44.1346 64.3436 44.1346C64.5104 44.1346 64.6784 44.1321 64.8451 44.1346C65.294 44.141 65.5874 43.9268 65.5823 43.4652C65.5773 42.9973 65.2601 42.8098 64.8213 42.8175C64.6746 42.82 64.5292 42.8162 64.3825 42.8162C48.8583 42.8162 33.3353 42.8149 17.8111 42.8162C17.6231 42.8162 17.3848 42.7537 17.2582 42.8468C17.035 43.01 16.7354 43.2727 16.7391 43.4882C16.7429 43.7036 17.0526 43.9548 17.2808 44.1104C17.4112 44.1996 17.6469 44.1346 17.8337 44.1346C25.6083 44.1359 33.3805 44.1359 41.1526 44.1346ZM41.4786 33.5415C43.2715 33.5415 45.0656 33.5364 46.8585 33.5441C47.3375 33.5466 47.7788 33.4791 47.7888 32.8772C47.7988 32.2601 47.34 32.2027 46.8698 32.2027C43.2828 32.204 39.697 32.2053 36.1099 32.2015C35.6285 32.2002 35.1708 32.2856 35.1708 32.8683C35.1708 33.437 35.6034 33.5505 36.0986 33.5479C37.8928 33.5339 39.6857 33.5428 41.4786 33.5415Z" fill="#387FF5"/>
<path d="M30.4919 59.8241C30.5847 59.3778 30.6737 58.9316 30.7715 58.4878C31.0536 57.2179 30.8404 56.0538 30.0907 54.9866C29.5791 54.2585 29.1378 53.4973 29.104 52.5576C29.0526 51.1512 29.6757 50.0827 30.7414 49.2068C30.6586 49.4898 30.5822 49.7755 30.4894 50.0547C30.0192 51.4725 30.1158 52.7909 31.0385 54.0239C31.9375 55.2237 32.3099 56.5702 31.7306 58.0237C31.4648 58.6906 31.0298 59.2886 30.6712 59.9172C30.6123 59.8853 30.5521 59.8547 30.4919 59.8241Z" fill="#387FF5"/>
<path d="M41.9263 59.9375C42.0592 59.1585 42.2059 58.461 42.2911 57.7559C42.4077 56.7907 42.1482 55.9122 41.6041 55.1115C41.3558 54.7455 41.1101 54.3732 40.9145 53.978C40.102 52.337 40.6324 50.2816 42.1833 49.1506C42.0329 49.7027 41.8874 50.2038 41.7583 50.71C41.4674 51.8486 41.6693 52.8878 42.3576 53.8377C43.0121 54.7417 43.4985 55.7133 43.4095 56.8876C43.3205 58.0823 42.8127 59.0628 41.9263 59.9375Z" fill="#387FF5"/>
<path d="M52.6962 49.2628C52.5658 49.7435 52.4304 50.2229 52.305 50.7036C51.9991 51.8716 52.236 52.9235 52.9407 53.8874C53.6177 54.8131 54.0653 55.8204 53.9462 57.0164C53.8321 58.1652 53.3118 59.0947 52.4341 59.9987C52.5808 59.2706 52.72 58.6841 52.8165 58.0899C53.0222 56.8162 52.5984 55.7349 51.8875 54.6945C50.7716 53.0637 50.7892 51.5209 51.8549 50.0329C52.0705 49.732 52.3414 49.4706 52.5858 49.1914C52.6222 49.2156 52.6586 49.2399 52.6962 49.2628Z" fill="#387FF5"/>
</g>
<defs>
<clipPath id="clip0_0_1">
<rect width="59" height="35" fill="white" transform="translate(12 25)"/>
</clipPath>
</defs>
</svg>
