<svg width="83" height="83" viewBox="0 0 83 83" fill="none" xmlns="http://www.w3.org/2000/svg">
<rect width="83" height="83" rx="10" fill="white"/>
<g clip-path="url(#clip0_0_1)">
<path d="M43.345 16C44.2872 16.4802 44.4474 17.2634 44.3581 18.2762C44.0999 21.2146 43.9335 24.1618 43.7219 27.1052C43.5102 30.0487 43.2875 32.9909 43.0721 35.9343C43.0428 36.3434 43.0317 36.755 43.0097 37.2152C43.2153 37.2152 43.3903 37.2152 43.5652 37.2152C46.853 37.2152 50.1421 37.2139 53.4299 37.2164C54.9227 37.2177 55.5871 38.3389 54.8652 39.661C50.0784 48.4339 45.2868 57.2031 40.494 65.9723C39.8651 67.1235 38.6537 67.3555 37.966 66.4163C37.7274 66.0908 37.5977 65.5832 37.6234 65.1716C37.9183 60.6554 38.2524 56.1417 38.5791 51.628C38.7186 49.6948 38.8654 47.7629 39.0134 45.7686C38.7969 45.7686 38.6231 45.7686 38.4481 45.7686C35.1603 45.7686 31.8713 45.7699 28.5835 45.7686C27.0626 45.7674 26.4079 44.6461 27.147 43.2929C31.93 34.5374 36.7168 25.7832 41.4925 17.024C41.7482 16.5538 42.1043 16.2295 42.5631 16C42.825 16 43.0844 16 43.345 16Z" fill="#387FF5"/>
<path d="M36.1467 20.7146C35.4749 21.9419 34.8252 23.1442 34.1546 24.3328C34.0763 24.4712 33.8854 24.5623 33.7288 24.6359C29.3912 26.6414 26.2539 29.8604 24.3732 34.3217C23.108 37.3238 22.6846 40.4606 23.0884 43.7071C23.7149 48.7358 26.0006 52.8167 29.8684 55.9834C31.311 57.1646 32.9115 58.0788 34.6539 58.7136C35.0564 58.8595 35.169 59.0591 35.1237 59.4682C35.0332 60.2901 34.983 61.1182 34.9157 61.9464C26.8228 59.6565 19.5021 51.2764 20.027 40.4319C20.5507 29.5973 28.6081 22.2811 36.1467 20.7146Z" fill="#387FF5"/>
<path d="M45.8522 62.2792C46.5325 61.0332 47.1883 59.8197 47.8638 58.6186C47.9335 58.4939 48.1183 58.4216 48.2627 58.3555C53.1057 56.1017 56.4143 52.4125 58.1395 47.2851C59.0169 44.6772 59.2542 41.987 58.9104 39.2431C58.3402 34.7007 56.3812 30.898 53.0763 27.8136C51.4036 26.2521 49.4924 25.0685 47.3584 24.279C46.9326 24.1218 46.8286 23.911 46.8775 23.4832C46.9718 22.6775 47.017 21.8668 47.0819 21.0562C54.6535 23.1215 62.1945 31.0713 61.9951 41.9022C61.7957 52.7954 53.8618 60.563 45.8522 62.2792Z" fill="#387FF5"/>
</g>
<defs>
<clipPath id="clip0_0_1">
<rect width="42" height="51" fill="white" transform="translate(20 16)"/>
</clipPath>
</defs>
</svg>
