<svg width="83" height="83" viewBox="0 0 83 83" fill="none" xmlns="http://www.w3.org/2000/svg">
<rect width="83" height="83" rx="10" fill="white"/>
<g clip-path="url(#clip0_0_1)">
<path d="M32.7404 44.0769C32.8196 39.481 36.4944 35.9908 41.1421 36.0979C45.6697 36.202 49.2684 39.8689 49.2039 44.3171C49.1394 48.7826 45.2624 52.4639 40.7524 52.3453C36.2277 52.2237 32.6642 48.5453 32.7404 44.0769Z" fill="#387FF5"/>
<path d="M31.2195 46.3489C32.2335 48.0766 33.1712 49.68 34.1969 51.428C34.0562 51.5496 33.7602 51.8419 33.4262 52.085C29.2532 55.1064 25.0802 58.122 20.8984 61.1319C18.9291 62.55 17.4023 62.2432 16.1598 60.1942C15.559 59.2015 14.9466 58.2146 14.4015 57.193C13.6161 55.7228 13.9795 54.1803 15.4711 53.4857C20.7518 51.0286 26.0765 48.6699 31.2195 46.3489Z" fill="#387FF5"/>
<path d="M47.7005 51.4076C48.7291 49.648 49.6669 48.0447 50.675 46.3198C50.7746 46.3517 51.0442 46.4153 51.2933 46.5253C56.1491 48.6438 61.0049 50.7565 65.8549 52.8894C68.0938 53.8763 68.5539 55.2886 67.3582 57.4013C66.7868 58.4084 66.2388 59.4329 65.6058 60.4025C64.6798 61.8206 63.0533 62.2171 61.6702 61.2562C56.9638 57.9888 52.3043 54.6606 47.7005 51.4076Z" fill="#387FF5"/>
<path d="M43.8616 34.9489C42.7539 34.8534 41.7898 34.7087 40.8256 34.7087C39.9113 34.7116 38.997 34.8679 37.9303 34.975C37.605 32.1272 37.2739 29.2794 36.9545 26.4316C36.6731 23.9456 36.4241 21.4567 36.1193 18.9736C35.7764 16.1663 36.7611 15.0347 39.6271 15.0145C40.6498 15.0087 41.6755 14.9913 42.7011 15.0174C44.6118 15.0637 45.6844 16.175 45.5173 18.0793C45.0866 22.9211 44.5942 27.7571 44.1254 32.5961C44.0433 33.3543 43.9525 34.1126 43.8616 34.9489Z" fill="#387FF5"/>
</g>
<defs>
<clipPath id="clip0_0_1">
<rect width="54" height="47" fill="white" transform="translate(14 15)"/>
</clipPath>
</defs>
</svg>
