<svg width="83" height="83" viewBox="0 0 83 83" fill="none" xmlns="http://www.w3.org/2000/svg">
<rect width="83" height="83" rx="10" fill="white"/>
<g clip-path="url(#clip0_0_1)">
<path d="M41.0006 56.6268C39.7884 56.6268 38.5761 56.6305 37.3638 56.6255C36.3365 56.6212 35.562 55.9505 35.3974 54.9478C35.0317 52.7235 34.0815 50.7821 32.5215 49.1498C30.7524 47.2987 29.6505 45.1193 29.307 42.587C28.506 36.6833 32.0528 31.3888 37.4742 29.7104C44.3064 27.595 51.4216 31.9034 52.6221 38.942C53.2813 42.8077 52.2102 46.221 49.5131 49.0939C47.9524 50.7562 46.9621 52.6885 46.6002 54.9386C46.4368 55.9548 45.6506 56.6231 44.6066 56.6255C43.4049 56.6292 42.2031 56.6268 41.0006 56.6268Z" fill="#387FF5"/>
<path d="M40.9951 57.6233C42.1143 57.6233 43.2334 57.6221 44.352 57.6233C45.1746 57.6239 45.7332 58.1588 45.7369 58.9795C45.74 59.6336 45.7517 60.2921 45.679 60.9401C45.5932 61.7091 45.2331 62.3153 44.4161 62.5452C44.344 62.5655 44.2712 62.678 44.2472 62.761C44.1448 63.1139 44.0646 63.4736 43.9684 63.8283C43.7582 64.6023 43.2464 64.997 42.4528 64.9982C41.4773 65.0001 40.5024 65.0001 39.5269 64.9982C38.7506 64.9964 38.2308 64.6011 38.0248 63.8504C37.9249 63.4859 37.8454 63.1158 37.7449 62.7518C37.7239 62.675 37.6635 62.5674 37.6006 62.5496C36.6522 62.2864 36.3427 61.5542 36.2705 60.6917C36.2194 60.0818 36.2385 59.4633 36.2613 58.8504C36.2878 58.1428 36.8366 57.6295 37.5457 57.6252C38.6957 57.6184 39.8457 57.6233 40.9951 57.6233Z" fill="#387FF5"/>
<path d="M42.3257 21.6536C42.3257 22.4313 42.3387 23.2096 42.322 23.9867C42.3072 24.6654 41.8472 25.1898 41.23 25.279C40.5542 25.3767 39.9536 25.0294 39.7501 24.4072C39.7002 24.2541 39.6743 24.0863 39.6736 23.9258C39.6681 22.411 39.6669 20.8962 39.6718 19.382C39.6736 18.8121 39.9129 18.3658 40.4481 18.1291C40.9494 17.9071 41.4329 17.9729 41.8602 18.3233C42.211 18.611 42.3313 19.002 42.3288 19.4435C42.3251 20.1806 42.3276 20.9171 42.3276 21.6542C42.3276 21.6536 42.3263 21.6536 42.3257 21.6536Z" fill="#387FF5"/>
<path d="M53.0099 30.2655C52.4463 30.2427 52.0221 29.99 51.8019 29.4675C51.5836 28.9492 51.6632 28.45 52.0621 28.0461C53.1653 26.929 54.2777 25.8218 55.3962 24.7201C55.9259 24.1988 56.7368 24.2062 57.2535 24.7134C57.785 25.2347 57.8041 26.0425 57.2701 26.5878C56.4735 27.4018 55.6601 28.1986 54.8542 29.0033C54.5712 29.2861 54.2894 29.5701 54.0045 29.8511C53.7307 30.1222 53.4064 30.2784 53.0099 30.2655Z" fill="#387FF5"/>
<path d="M57.6624 56.0746C57.6186 56.7816 57.3806 57.1996 56.8718 57.4277C56.3533 57.6601 55.8421 57.5986 55.44 57.2089C54.2919 56.0955 53.161 54.9637 52.0406 53.822C51.5479 53.3197 51.5812 52.5125 52.069 52.0158C52.5709 51.5043 53.3879 51.4533 53.9016 51.9531C55.0473 53.0695 56.1806 54.1989 57.2905 55.3504C57.5014 55.5686 57.5822 55.9123 57.6624 56.0746Z" fill="#387FF5"/>
<path d="M30.2869 29.0962C30.2671 29.5099 30.018 29.92 29.5068 30.1419C28.9741 30.3737 28.474 30.2833 28.0535 29.8899C27.5817 29.4484 27.1335 28.9824 26.6747 28.5269C26.0414 27.898 25.4075 27.2697 24.7767 26.6389C24.2125 26.0751 24.1885 25.2477 24.7157 24.7159C25.2466 24.181 26.0747 24.1939 26.6426 24.7571C27.7205 25.8262 28.7922 26.9014 29.87 27.9711C30.1469 28.2459 30.2949 28.5681 30.2869 29.0962Z" fill="#387FF5"/>
<path d="M30.2899 52.9441C30.2929 53.3129 30.1561 53.6246 29.8983 53.8822C28.8032 54.9765 27.7124 56.0745 26.608 57.159C26.0629 57.6939 25.2434 57.6816 24.7273 57.1621C24.2094 56.6407 24.2087 55.8274 24.7452 55.2876C25.8434 54.1822 26.9478 53.083 28.0558 51.9875C28.4511 51.5971 29.0227 51.4956 29.5074 51.7262C30.0155 51.9678 30.2806 52.3779 30.2899 52.9441Z" fill="#387FF5"/>
<path d="M21.6701 42.2568C20.9105 42.2568 20.1508 42.2605 19.3911 42.2556C18.5747 42.2506 18.0006 41.7029 18 40.9381C17.9994 40.1776 18.5827 39.6169 19.3936 39.6138C20.9129 39.6089 22.4329 39.6065 23.9523 39.6151C24.6799 39.6188 25.204 40.0866 25.307 40.7899C25.397 41.4047 24.9968 42.0195 24.3728 42.199C24.218 42.2433 24.0497 42.2531 23.8875 42.2543C23.1488 42.2599 22.4095 42.2568 21.6701 42.2568Z" fill="#387FF5"/>
<path d="M60.3489 42.2568C59.5893 42.2568 58.8296 42.2612 58.0699 42.2556C57.2615 42.2501 56.6696 41.682 56.6782 40.9302C56.6868 40.1912 57.2751 39.6182 58.0588 39.6145C59.5782 39.6065 61.0975 39.6084 62.6169 39.6139C63.4216 39.617 64.0037 40.1875 64 40.9492C63.9963 41.6974 63.4228 42.2489 62.628 42.255C61.8683 42.2618 61.1086 42.2568 60.3489 42.2568Z" fill="#387FF5"/>
</g>
<defs>
<clipPath id="clip0_0_1">
<rect width="46" height="47" fill="white" transform="translate(18 18)"/>
</clipPath>
</defs>
</svg>
