<svg width="83" height="83" viewBox="0 0 83 83" fill="none" xmlns="http://www.w3.org/2000/svg">
<rect width="83" height="83" rx="10" fill="white"/>
<g clip-path="url(#clip0_0_1)">
<path d="M22.4346 41.8949C23.5816 41.8949 24.6158 41.8949 25.6635 41.8949C25.7152 42.4266 25.5385 42.632 25.0275 42.6159C24.1021 42.5863 23.1739 42.6078 22.2022 42.6078C21.9481 43.3798 21.7008 44.133 21.4249 44.9708C22.5759 44.9708 23.6468 44.9708 24.7177 44.9708C24.7055 45.6931 24.7055 45.6957 24.079 45.6998C23.2636 45.7038 22.4482 45.6864 21.6342 45.7159C21.4507 45.7226 21.1667 45.8488 21.1123 45.9884C20.8582 46.6503 20.6679 47.335 20.4328 48.0815C21.6165 48.0815 22.7186 48.0815 23.8235 48.0815C23.9064 48.6883 23.6346 48.8427 23.11 48.8213C22.296 48.7877 21.4792 48.8226 20.6652 48.7998C20.3173 48.7904 20.1311 48.8897 20.0346 49.2388C19.8634 49.8591 19.646 50.4673 19.4231 51.1573C20.6122 51.1573 21.751 51.1573 22.9198 51.1573C22.9728 51.7561 22.7635 51.9656 22.2022 51.9387C21.3895 51.9011 20.5714 51.9481 19.7574 51.9253C19.3361 51.9132 19.0997 52.0206 18.9869 52.4664C18.8061 53.1752 18.5452 53.864 18.2979 54.6252C22.8763 54.6252 27.3813 54.6252 31.9801 54.6252C31.3033 53.3887 30.6768 52.1844 29.9878 51.015C29.6793 50.4928 29.6128 50.0296 29.7935 49.4442C30.7964 46.2032 31.7749 42.9542 32.7248 39.6971C32.8838 39.1494 33.1434 38.999 33.6965 38.952C36.67 38.6983 39.6393 38.3921 42.6101 38.1048C43.8032 37.9894 44.9937 37.8511 46.1896 37.7746C46.7291 37.7397 47.0798 37.5289 47.4508 37.1409C48.2322 36.3206 48.4877 35.4183 48.4496 34.2946C48.3681 31.8592 48.4143 29.4184 48.4347 26.9803C48.4387 26.5466 48.2879 26.3197 47.9264 26.074C46.793 25.302 45.6025 24.9892 44.1946 25.0013C37.0844 25.0644 29.9742 25.0496 22.864 25.0121C21.5485 25.0053 20.3078 25.153 19.116 25.7062C18.4664 26.0069 17.5599 26.1036 17.2093 26.5963C16.8764 27.0662 17.106 27.9322 17.1047 28.6249C17.1006 30.6603 17.1156 32.6969 17.0952 34.7323C17.0911 35.1391 17.2216 35.3727 17.5681 35.5902C19.3225 36.6951 21.0498 37.8417 22.8083 38.9413C23.1902 39.1802 23.2731 39.3897 23.1141 39.8005C22.8668 40.4423 22.686 41.1082 22.4346 41.8949ZM43.8359 33.6287C43.0911 33.7589 43.0857 33.7616 42.7962 33.2649C42.3913 32.5694 41.9958 31.8686 41.599 31.1678C41.1858 30.4414 40.7768 29.7124 40.3609 28.9767C40.9752 28.7793 41.2837 28.9834 41.4984 29.4761C41.6846 29.9044 41.9591 30.2937 42.1901 30.7019C42.7364 31.6699 43.2787 32.6379 43.8359 33.6287ZM36.1019 28.9794C36.6536 28.8075 36.954 28.9391 37.2027 29.405C37.8876 30.6871 38.631 31.9397 39.3458 33.2071C39.426 33.3494 39.4749 33.5079 39.5401 33.6636C38.9884 33.8247 38.6853 33.6502 38.4624 33.191C38.1689 32.5882 37.8074 32.0189 37.4785 31.4336C37.0219 30.6213 36.5667 29.8077 36.1019 28.9794ZM31.7287 28.7954C32.1962 28.9337 32.6134 28.9297 32.7207 29.1069C33.6163 30.5904 34.4548 32.1089 35.3096 33.6166C35.2797 33.6676 35.2485 33.7186 35.2186 33.7697C34.9454 33.6878 34.5296 33.6891 34.4222 33.5105C33.5307 32.0243 32.6949 30.5045 31.7287 28.7954Z" fill="#387FF5"/>
<path d="M37.4595 62C37.4595 59.8143 37.4595 57.6568 37.4595 55.4509C30.6428 55.4509 23.8425 55.4509 17 55.4509C17 57.6366 17 59.7955 17 62C23.818 62 30.617 62 37.4595 62Z" fill="#387FF5"/>
<path d="M36.9241 44.7171C36.5667 42.9718 36.216 41.26 35.8573 39.5093C35.1316 39.571 34.4602 39.6167 33.793 39.6959C33.6679 39.7107 33.4872 39.8382 33.4519 39.9496C32.964 41.5164 32.4979 43.0899 32.01 44.7171C33.6856 44.7171 35.277 44.7171 36.9241 44.7171Z" fill="#387FF5"/>
<path d="M49.2269 27.0715C49.2269 29.8439 49.2269 32.5412 49.2269 35.2398C51.1635 35.1417 51.1635 35.1417 51.1635 33.2756C51.1649 31.5544 51.1676 29.8319 51.1703 28.1107C51.1703 27.869 51.1703 27.6287 51.1703 27.3615C50.503 27.2608 49.9051 27.1722 49.2269 27.0715Z" fill="#387FF5"/>
<path d="M51.9584 33.9308C52.892 33.5992 53.7822 33.2944 54.6587 32.9575C54.7756 32.9132 54.8924 32.6997 54.8952 32.5627C54.9169 31.6471 54.9156 30.7301 54.8965 29.8131C54.8938 29.6708 54.7905 29.4466 54.6764 29.4023C53.7998 29.0653 52.9097 28.7633 51.9584 28.4263C51.9584 30.2924 51.9584 32.0646 51.9584 33.9308Z" fill="#387FF5"/>
<path d="M57.6499 31.9385C59.2617 32.3695 60.4698 31.8015 61.3137 30.4402C60.0879 29.8897 58.7167 30.4361 57.6499 31.9385Z" fill="#387FF5"/>
<path d="M71.309 31.9277C72.9697 32.4003 74.1642 31.7773 75 30.416C73.5024 29.9769 72.5049 30.3797 71.309 31.9277Z" fill="#387FF5"/>
<path d="M64.4651 31.9357C66.1163 32.4136 67.2959 31.7383 68.167 30.4025C66.543 29.9554 65.3213 30.534 64.4651 31.9357Z" fill="#387FF5"/>
<path d="M64.7655 30.4013C63.1374 29.9784 61.9144 30.5087 61.0963 31.9211C62.727 32.4406 63.8781 31.7291 64.7655 30.4013Z" fill="#387FF5"/>
<path d="M71.5658 30.4105C69.9255 29.9567 68.7282 30.5487 67.8938 31.9262C69.5273 32.4283 70.6933 31.7463 71.5658 30.4105Z" fill="#387FF5"/>
<path d="M55.6929 30.3542C55.6929 30.9222 55.6929 31.4444 55.6929 32.0096C56.9785 32.117 57.1987 30.8591 57.9814 30.3542C57.2326 30.3542 56.4825 30.3542 55.6929 30.3542Z" fill="#387FF5"/>
</g>
<defs>
<clipPath id="clip0_0_1">
<rect width="58" height="37" fill="white" transform="matrix(-1 0 0 1 75 25)"/>
</clipPath>
</defs>
</svg>
