<svg width="83" height="83" viewBox="0 0 83 83" fill="none" xmlns="http://www.w3.org/2000/svg">
<rect width="83" height="83" rx="10" fill="white"/>
<g clip-path="url(#clip0_0_1)">
<path d="M18.0004 35.896C33.343 35.896 48.6627 35.896 63.9992 35.896C63.9992 35.9526 63.9992 36.002 63.9992 36.0514C63.9992 44.5417 64.0004 53.0324 63.9983 61.5228C63.9979 63.7727 62.2765 65.6912 60.019 65.9664C59.8429 65.9879 59.6639 65.9984 59.4866 65.9984C47.1637 66 34.8408 65.9996 22.5183 65.9996C20.314 65.9996 18.385 64.3607 18.0577 62.2046C18.0217 61.9675 18.0028 61.7259 18.0028 61.4863C18 53.0142 18.0004 44.5425 18.0004 36.0704C18.0004 36.0158 18.0004 35.9616 18.0004 35.896ZM24.9732 58.9313C35.6677 58.9313 46.3433 58.9313 57.0239 58.9313C57.0239 53.0778 57.0239 47.2336 57.0239 41.3873C46.3347 41.3873 35.6558 41.3873 24.9732 41.3873C24.9732 47.2404 24.9732 53.0814 24.9732 58.9313Z" fill="#387FF5"/>
<path d="M63.9991 34.0846C48.6561 34.0846 33.3368 34.0846 18.0004 34.0846C18.0004 34.0283 18.0004 33.9789 18.0004 33.9296C18.0004 31.1426 17.9987 28.3561 18.0008 25.5692C18.0024 23.3406 19.6902 21.4343 21.9252 21.1372C22.1472 21.1077 22.3729 21.0927 22.5969 21.0911C23.4918 21.0858 24.3867 21.0858 25.2816 21.0923C25.4098 21.0931 25.4544 21.0523 25.4896 20.9353C25.7165 20.1774 25.9528 19.4223 26.1847 18.6659C26.326 18.2058 26.6041 18.0011 27.0939 18.0011C28.1669 18.0011 29.2396 17.9994 30.3126 18.0019C30.7312 18.0031 31.0716 18.309 31.126 18.7222C31.1764 19.1054 30.9253 19.4862 30.5412 19.5955C30.4437 19.623 30.3384 19.6331 30.2365 19.6335C29.4071 19.6363 28.5777 19.6375 27.7488 19.6323C27.639 19.6315 27.5944 19.6667 27.5649 19.767C27.4371 20.2012 27.3015 20.633 27.1652 21.0786C30.2299 21.0786 33.2811 21.0786 36.3512 21.0786C36.3168 20.9636 36.2845 20.8548 36.2513 20.7463C36.1505 20.419 36.0436 20.0936 35.9511 19.7642C35.9208 19.657 35.8708 19.6323 35.7656 19.6327C34.9223 19.6367 34.079 19.6379 33.2357 19.6335C32.7233 19.6311 32.3596 19.2414 32.394 18.7444C32.4215 18.3462 32.7639 18.0059 33.1689 18.0035C34.2932 17.9966 35.4178 17.9978 36.5421 18.0035C36.9136 18.0055 37.2019 18.2439 37.3174 18.6182C37.5533 19.383 37.7913 20.147 38.0202 20.9139C38.0591 21.0446 38.1095 21.0927 38.2565 21.0923C40.093 21.0862 41.9299 21.0871 43.7664 21.0907C43.8839 21.0911 43.9343 21.0595 43.9691 20.9446C44.2001 20.1737 44.4405 19.4053 44.6776 18.636C44.8071 18.2163 45.097 18.0011 45.5377 18.0011C46.6108 18.0003 47.6834 18.0003 48.7565 18.0011C49.2426 18.0015 49.6071 18.3479 49.6096 18.8092C49.612 19.2766 49.2488 19.6323 48.7556 19.6339C47.9124 19.6371 47.0691 19.6367 46.2258 19.6327C46.125 19.6323 46.0804 19.6598 46.0513 19.7589C45.9338 20.1632 45.8052 20.5642 45.6815 20.9665C45.6708 21.0013 45.6647 21.0369 45.654 21.0806C48.7155 21.0806 51.768 21.0806 54.8352 21.0806C54.7348 20.7524 54.6378 20.4347 54.5407 20.1171C54.5043 19.9977 54.4596 19.8799 54.4318 19.7585C54.4088 19.6578 54.3572 19.6315 54.2561 19.6319C53.4128 19.6359 52.5695 19.6359 51.7262 19.6331C51.2249 19.6315 50.8514 19.2559 50.8698 18.7809C50.8862 18.3576 51.2405 18.0031 51.6689 18.0015C52.7788 17.9986 53.8895 17.9999 54.9998 18.0031C55.3787 18.0043 55.6768 18.2305 55.7911 18.5967C56.0364 19.383 56.2789 20.1697 56.5173 20.958C56.548 21.0599 56.5918 21.0923 56.6999 21.0919C57.6042 21.0871 58.5086 21.0887 59.4125 21.0895C61.5803 21.0911 63.4118 22.5281 63.8877 24.6166C63.959 24.9298 63.9934 25.2576 63.9942 25.5789C64.0024 28.3609 63.9987 31.143 63.9987 33.9251C63.9991 33.9749 63.9991 34.0247 63.9991 34.0846ZM32.8306 30.9941C32.9318 30.9334 33.0334 30.893 33.1075 30.8242C33.336 30.6117 33.5539 30.3883 33.7759 30.169C35.005 28.9546 36.2341 27.7402 37.4632 26.5258C37.7016 26.2903 37.7003 26.1268 37.4591 25.8876C37.3432 25.7727 37.2277 25.6582 37.111 25.5441C36.8832 25.3207 36.7129 25.3199 36.4856 25.5437C35.9482 26.0734 35.4117 26.6039 34.8752 27.134C33.9639 28.034 33.0526 28.934 32.1417 29.8343C31.9366 30.0375 31.9353 30.2212 32.1364 30.4223C32.2749 30.5607 32.4092 30.7036 32.5558 30.8323C32.6291 30.8966 32.7262 30.9338 32.8306 30.9941ZM22.4875 30.1148C22.5457 30.2208 22.5768 30.3155 22.6387 30.3831C22.7857 30.5445 22.9446 30.6955 23.1035 30.846C23.2682 31.0022 23.4635 30.9998 23.6269 30.844C23.7347 30.7412 23.8391 30.6348 23.9452 30.5304C25.3057 29.1861 26.6667 27.8418 28.0273 26.4971C28.2259 26.3004 28.2255 26.1187 28.0273 25.9212C27.8987 25.7929 27.7693 25.6659 27.6398 25.5384C27.4199 25.3223 27.2458 25.3223 27.0259 25.5396C26.4398 26.1183 25.8537 26.6974 25.2681 27.2764C24.4072 28.1271 23.5454 28.976 22.6878 29.8295C22.6092 29.9068 22.5588 30.0112 22.4875 30.1148ZM60.0682 26.2138C60.0092 26.1134 59.974 26.0208 59.9117 25.9528C59.7671 25.7954 59.6115 25.6477 59.4571 25.4995C59.2875 25.3365 59.0934 25.3369 58.923 25.5C58.785 25.6319 58.6511 25.7678 58.5155 25.9018C57.1881 27.2133 55.8603 28.5248 54.5329 29.8368C54.3265 30.0407 54.3277 30.2176 54.5337 30.4231C54.6656 30.5547 54.7979 30.6858 54.9306 30.8161C55.1288 31.0103 55.3152 31.0099 55.5138 30.814C55.9148 30.4187 56.3149 30.0225 56.7159 29.6267C57.7722 28.5835 58.8296 27.5415 59.883 26.4954C59.9576 26.4214 60.0018 26.3174 60.0682 26.2138ZM47.1375 26.2114C47.0773 26.1098 47.0408 26.0183 46.9785 25.9499C46.8405 25.799 46.6902 25.6594 46.5436 25.5165C46.3556 25.3328 46.1656 25.3308 45.98 25.5137C44.513 26.962 43.0468 28.4111 41.5805 29.8606C41.406 30.033 41.4048 30.2248 41.5752 30.3968C41.719 30.5425 41.8652 30.6858 42.0122 30.8286C42.1924 31.0038 42.3878 31.0046 42.5655 30.8302C42.8182 30.5826 43.0689 30.3333 43.3203 30.0848C44.5318 28.8878 45.7445 27.6916 46.9532 26.4914C47.0281 26.4177 47.0719 26.3137 47.1375 26.2114ZM26.4542 25.6274C25.3762 25.1438 23.9517 25.4186 23.1162 26.4873C22.3831 27.4254 22.4466 28.6847 22.7878 29.2484C24.0062 28.0453 25.2267 26.8398 26.4542 25.6274ZM43.17 30.7076C44.1231 31.1556 45.5205 30.9965 46.4162 29.9638C47.2464 29.0068 47.1928 27.7159 46.8377 27.085C45.6188 28.2885 44.3983 29.4944 43.17 30.7076ZM56.1093 30.7145C57.0759 31.1552 58.4078 30.9755 59.2765 30.0427C60.13 29.1266 60.1624 27.8434 59.7778 27.0891C58.5581 28.2942 57.3356 29.5025 56.1093 30.7145ZM58.3128 25.6307C57.327 25.1746 55.9316 25.3636 55.0547 26.3882C54.2311 27.3509 54.2954 28.647 54.646 29.2536C55.8644 28.0498 57.0849 26.8439 58.3128 25.6307ZM24.2483 30.7125C25.2423 31.1657 26.6036 30.9662 27.469 29.9873C28.2898 29.059 28.2898 27.7786 27.9147 27.0907C26.697 28.2942 25.4757 29.5005 24.2483 30.7125ZM45.3731 25.6246C44.3999 25.1827 43.0791 25.3684 42.2162 26.2862C41.3565 27.2004 41.3168 28.4824 41.7038 29.2496C42.9231 28.0449 44.1456 26.8374 45.3731 25.6246ZM35.9159 25.625C34.8752 25.1459 33.5306 25.4364 32.7397 26.2984C31.903 27.2101 31.8456 28.469 32.2429 29.2532C33.4638 28.0473 34.6872 26.8386 35.9159 25.625ZM37.3698 27.0434C36.1317 28.2667 34.9088 29.475 33.6788 30.6902C34.5258 31.1078 35.8053 31.0358 36.7161 30.2079C37.5836 29.42 37.8744 28.0886 37.3698 27.0434Z" fill="#387FF5"/>
<path d="M40.9981 47.7126C37.6532 47.7126 34.3083 47.713 30.9634 47.7122C30.2582 47.7122 29.6684 47.2751 29.5025 46.6338C29.265 45.7148 29.9432 44.8318 30.9041 44.8103C30.9323 44.8095 30.9602 44.8099 30.9884 44.8099C37.6639 44.8099 44.3397 44.8099 51.0152 44.8099C51.7344 44.8099 52.3201 45.2352 52.4962 45.8831C52.7497 46.8179 52.0444 47.7106 51.0467 47.7118C49.0231 47.7138 46.999 47.7126 44.9754 47.7126C43.6496 47.713 42.3239 47.7126 40.9981 47.7126Z" fill="#387FF5"/>
</g>
<defs>
<clipPath id="clip0_0_1">
<rect width="46" height="48" fill="white" transform="translate(18 18)"/>
</clipPath>
</defs>
</svg>
