<svg width="229" height="41" viewBox="0 0 229 41" fill="none" xmlns="http://www.w3.org/2000/svg">
<path d="M219.155 11.1987C220.214 16.4395 224.067 20.5334 229 21.6588C224.067 22.7841 220.214 26.878 219.155 32.1188C218.095 26.878 214.242 22.7841 209.309 21.6588C214.242 20.5334 218.095 16.4395 219.155 11.1987Z" fill="#387FF5"/>
<path d="M226.421 10.8721C226.693 12.1413 227.685 13.1328 228.954 13.4054C227.685 13.6779 226.693 14.6694 226.421 15.9386C226.148 14.6694 225.157 13.6779 223.888 13.4054C225.157 13.1328 226.148 12.1413 226.421 10.8721Z" fill="#387FF5"/>
<path d="M211.855 27.3384C212.059 28.2903 212.803 29.0339 213.755 29.2383C212.803 29.4428 212.059 30.1864 211.855 31.1383C211.65 30.1864 210.907 29.4428 209.955 29.2383C210.907 29.0339 211.65 28.2903 211.855 27.3384Z" fill="#387FF5"/>
<path d="M4.89027 32C4.15074 32 3.57929 31.8095 3.17591 31.4285C2.79494 31.0252 2.60445 30.4537 2.60445 29.7142V10.5872C2.60445 9.84771 2.79494 9.28746 3.17591 8.90649C3.57929 8.50311 4.15074 8.30142 4.89027 8.30142H11.4116C15.3782 8.30142 18.4371 9.32108 20.5885 11.3604C22.7623 13.3997 23.8491 16.3242 23.8491 20.1339C23.8491 22.0388 23.569 23.7307 23.0088 25.2098C22.4709 26.6664 21.6642 27.899 20.5885 28.9074C19.5352 29.9159 18.2354 30.689 16.6891 31.2269C15.1653 31.7423 13.4061 32 11.4116 32H4.89027ZM6.90717 28.4368H11.1427C12.5321 28.4368 13.731 28.2687 14.7395 27.9326C15.7703 27.574 16.6219 27.0586 17.2942 26.3863C17.9889 25.6916 18.5043 24.8288 18.8405 23.7979C19.1767 22.7447 19.3447 21.5233 19.3447 20.1339C19.3447 17.3551 18.6612 15.2821 17.2942 13.9151C15.9272 12.5481 13.8767 11.8646 11.1427 11.8646H6.90717V28.4368ZM35.9075 32.3362C34.0474 32.3362 32.4451 31.9888 31.1005 31.2941C29.7559 30.5994 28.7139 29.6133 27.9743 28.336C27.2572 27.0586 26.8986 25.5459 26.8986 23.7979C26.8986 22.0948 27.246 20.6045 27.9407 19.3271C28.6578 18.0498 29.6327 17.0525 30.8652 16.3354C32.1202 15.5959 33.5432 15.2261 35.1343 15.2261C36.2996 15.2261 37.3417 15.4166 38.2605 15.7976C39.2017 16.1785 39.9973 16.7276 40.6472 17.4447C41.3195 18.1618 41.8237 19.0358 42.1599 20.0667C42.5184 21.0751 42.6977 22.218 42.6977 23.4954C42.6977 23.8988 42.552 24.2125 42.2607 24.4366C41.9918 24.6383 41.5996 24.7392 41.0842 24.7392H30.2938V22.3189H39.7396L39.2017 22.8231C39.2017 21.7922 39.0449 20.9295 38.7311 20.2347C38.4398 19.54 38.0028 19.0134 37.4201 18.6548C36.8599 18.2739 36.154 18.0834 35.3024 18.0834C34.3612 18.0834 33.5544 18.3075 32.8821 18.7557C32.2322 19.1815 31.728 19.7978 31.3694 20.6045C31.0333 21.3889 30.8652 22.3301 30.8652 23.4282V23.6635C30.8652 25.5011 31.291 26.8793 32.1426 27.7981C33.0166 28.6945 34.2939 29.1427 35.9747 29.1427C36.5574 29.1427 37.2072 29.0755 37.9244 28.941C38.6639 28.7842 39.3586 28.5264 40.0085 28.1679C40.4791 27.899 40.8937 27.7869 41.2523 27.8317C41.6108 27.8541 41.8909 27.9774 42.0926 28.2015C42.3167 28.4256 42.4512 28.7057 42.496 29.0419C42.5408 29.3556 42.4736 29.6806 42.2943 30.0167C42.1374 30.3529 41.8573 30.6442 41.4539 30.8907C40.6696 31.3837 39.762 31.7535 38.7311 32C37.7227 32.2241 36.7815 32.3362 35.9075 32.3362ZM48.1767 32.2689C47.5044 32.2689 46.9889 32.0896 46.6304 31.7311C46.2718 31.3501 46.0925 30.8123 46.0925 30.1176V17.4111C46.0925 16.7164 46.2718 16.1897 46.6304 15.8312C46.9889 15.4726 47.4932 15.2933 48.1431 15.2933C48.793 15.2933 49.2972 15.4726 49.6557 15.8312C50.0143 16.1897 50.1936 16.7164 50.1936 17.4111V19.865L49.8238 18.8565C50.272 17.736 50.9667 16.8508 51.9079 16.2009C52.8492 15.5511 53.9697 15.2261 55.2694 15.2261C56.5916 15.2261 57.6785 15.5399 58.5301 16.1673C59.3817 16.7948 59.9755 17.7584 60.3117 19.0582H59.8411C60.2893 17.8705 61.0288 16.9405 62.0597 16.2682C63.0905 15.5735 64.2783 15.2261 65.6229 15.2261C66.8778 15.2261 67.9087 15.4726 68.7154 15.9656C69.5446 16.4587 70.1609 17.2094 70.5643 18.2178C70.9677 19.2039 71.1693 20.4588 71.1693 21.9827V30.1176C71.1693 30.8123 70.9789 31.3501 70.5979 31.7311C70.2393 32.0896 69.7239 32.2689 69.0516 32.2689C68.3793 32.2689 67.8639 32.0896 67.5053 31.7311C67.1467 31.3501 66.9675 30.8123 66.9675 30.1176V22.1508C66.9675 20.8958 66.7546 19.977 66.3288 19.3944C65.9254 18.8117 65.2307 18.5204 64.2447 18.5204C63.1466 18.5204 62.2838 18.9126 61.6563 19.6969C61.0288 20.4588 60.7151 21.5233 60.7151 22.8903V30.1176C60.7151 30.8123 60.5358 31.3501 60.1772 31.7311C59.8187 32.0896 59.3032 32.2689 58.6309 32.2689C57.9586 32.2689 57.432 32.0896 57.051 31.7311C56.6925 31.3501 56.5132 30.8123 56.5132 30.1176V22.1508C56.5132 20.8958 56.3003 19.977 55.8745 19.3944C55.4711 18.8117 54.7876 18.5204 53.824 18.5204C52.7259 18.5204 51.8631 18.9126 51.2356 19.6969C50.6082 20.4588 50.2944 21.5233 50.2944 22.8903V30.1176C50.2944 31.5518 49.5885 32.2689 48.1767 32.2689ZM83.6053 32.3362C81.7453 32.3362 80.143 31.9888 78.7984 31.2941C77.4538 30.5994 76.4117 29.6133 75.6722 28.336C74.9551 27.0586 74.5965 25.5459 74.5965 23.7979C74.5965 22.0948 74.9438 20.6045 75.6386 19.3271C76.3557 18.0498 77.3305 17.0525 78.5631 16.3354C79.818 15.5959 81.2411 15.2261 82.8322 15.2261C83.9975 15.2261 85.0396 15.4166 85.9584 15.7976C86.8996 16.1785 87.6951 16.7276 88.345 17.4447C89.0173 18.1618 89.5216 19.0358 89.8577 20.0667C90.2163 21.0751 90.3955 22.218 90.3955 23.4954C90.3955 23.8988 90.2499 24.2125 89.9585 24.4366C89.6896 24.6383 89.2975 24.7392 88.782 24.7392H77.9916V22.3189H87.4374L86.8996 22.8231C86.8996 21.7922 86.7427 20.9295 86.429 20.2347C86.1376 19.54 85.7006 19.0134 85.118 18.6548C84.5577 18.2739 83.8518 18.0834 83.0002 18.0834C82.059 18.0834 81.2523 18.3075 80.58 18.7557C79.9301 19.1815 79.4258 19.7978 79.0673 20.6045C78.7311 21.3889 78.5631 22.3301 78.5631 23.4282V23.6635C78.5631 25.5011 78.9889 26.8793 79.8404 27.7981C80.7144 28.6945 81.9918 29.1427 83.6725 29.1427C84.2552 29.1427 84.9051 29.0755 85.6222 28.941C86.3617 28.7842 87.0565 28.5264 87.7063 28.1679C88.177 27.899 88.5915 27.7869 88.9501 27.8317C89.3087 27.8541 89.5888 27.9774 89.7905 28.2015C90.0146 28.4256 90.149 28.7057 90.1939 29.0419C90.2387 29.3556 90.1714 29.6806 89.9922 30.0167C89.8353 30.3529 89.5552 30.6442 89.1518 30.8907C88.3674 31.3837 87.4598 31.7535 86.429 32C85.4205 32.2241 84.4793 32.3362 83.6053 32.3362ZM101.187 32.3362C99.7306 32.3362 98.5093 32.0896 97.5232 31.5966C96.5596 31.1036 95.8425 30.3865 95.3719 29.4453C94.9013 28.4816 94.666 27.2939 94.666 25.8821V18.7221H92.918C92.3801 18.7221 91.9656 18.5876 91.6742 18.3187C91.3829 18.0274 91.2372 17.6352 91.2372 17.1422C91.2372 16.6267 91.3829 16.2346 91.6742 15.9656C91.9656 15.6967 92.3801 15.5623 92.918 15.5623H94.666V12.5033C94.666 11.8086 94.8452 11.282 95.2038 10.9234C95.5848 10.5648 96.1114 10.3856 96.7837 10.3856C97.456 10.3856 97.9714 10.5648 98.33 10.9234C98.6886 11.282 98.8678 11.8086 98.8678 12.5033V15.5623H102.431C102.969 15.5623 103.383 15.6967 103.675 15.9656C103.966 16.2346 104.112 16.6267 104.112 17.1422C104.112 17.6352 103.966 18.0274 103.675 18.3187C103.383 18.5876 102.969 18.7221 102.431 18.7221H98.8678V25.6468C98.8678 26.7224 99.1031 27.5292 99.5737 28.067C100.044 28.6049 100.806 28.8738 101.86 28.8738C102.241 28.8738 102.577 28.8402 102.868 28.773C103.159 28.7057 103.417 28.6609 103.641 28.6385C103.91 28.6161 104.134 28.7057 104.313 28.9074C104.493 29.0867 104.582 29.4677 104.582 30.0503C104.582 30.4985 104.504 30.9019 104.347 31.2605C104.213 31.5966 103.955 31.8319 103.574 31.9664C103.283 32.056 102.902 32.1345 102.431 32.2017C101.96 32.2913 101.546 32.3362 101.187 32.3362ZM114.496 32.3362C112.636 32.3362 111.033 31.9888 109.689 31.2941C108.344 30.5994 107.302 29.6133 106.563 28.336C105.845 27.0586 105.487 25.5459 105.487 23.7979C105.487 22.0948 105.834 20.6045 106.529 19.3271C107.246 18.0498 108.221 17.0525 109.453 16.3354C110.708 15.5959 112.131 15.2261 113.723 15.2261C114.888 15.2261 115.93 15.4166 116.849 15.7976C117.79 16.1785 118.585 16.7276 119.235 17.4447C119.908 18.1618 120.412 19.0358 120.748 20.0667C121.107 21.0751 121.286 22.218 121.286 23.4954C121.286 23.8988 121.14 24.2125 120.849 24.4366C120.58 24.6383 120.188 24.7392 119.672 24.7392H108.882V22.3189H118.328L117.79 22.8231C117.79 21.7922 117.633 20.9295 117.319 20.2347C117.028 19.54 116.591 19.0134 116.008 18.6548C115.448 18.2739 114.742 18.0834 113.891 18.0834C112.949 18.0834 112.143 18.3075 111.47 18.7557C110.82 19.1815 110.316 19.7978 109.958 20.6045C109.621 21.3889 109.453 22.3301 109.453 23.4282V23.6635C109.453 25.5011 109.879 26.8793 110.731 27.7981C111.605 28.6945 112.882 29.1427 114.563 29.1427C115.146 29.1427 115.795 29.0755 116.513 28.941C117.252 28.7842 117.947 28.5264 118.597 28.1679C119.067 27.899 119.482 27.7869 119.84 27.8317C120.199 27.8541 120.479 27.9774 120.681 28.2015C120.905 28.4256 121.039 28.7057 121.084 29.0419C121.129 29.3556 121.062 29.6806 120.883 30.0167C120.726 30.3529 120.446 30.6442 120.042 30.8907C119.258 31.3837 118.35 31.7535 117.319 32C116.311 32.2241 115.37 32.3362 114.496 32.3362ZM126.765 32.2689C126.07 32.2689 125.532 32.0896 125.151 31.7311C124.793 31.3501 124.614 30.8123 124.614 30.1176V17.4111C124.614 16.7164 124.793 16.1897 125.151 15.8312C125.51 15.4726 126.014 15.2933 126.664 15.2933C127.314 15.2933 127.818 15.4726 128.177 15.8312C128.535 16.1897 128.715 16.7164 128.715 17.4111V19.5288H128.378C128.692 18.1842 129.308 17.1646 130.227 16.4699C131.146 15.7752 132.367 15.3606 133.891 15.2261C134.362 15.1813 134.732 15.3045 135.001 15.5959C135.292 15.8648 135.46 16.2906 135.505 16.8732C135.55 17.4335 135.415 17.8929 135.101 18.2515C134.81 18.5876 134.362 18.7893 133.757 18.8565L133.017 18.9238C131.65 19.0582 130.619 19.484 129.925 20.2011C129.23 20.8958 128.883 21.8819 128.883 23.1593V30.1176C128.883 30.8123 128.703 31.3501 128.345 31.7311C127.986 32.0896 127.46 32.2689 126.765 32.2689ZM139.861 32.2689C139.189 32.2689 138.674 32.0896 138.315 31.7311C137.956 31.3501 137.777 30.8123 137.777 30.1176V10.1502C137.777 9.45554 137.956 8.9289 138.315 8.57034C138.674 8.21178 139.189 8.0325 139.861 8.0325C140.534 8.0325 141.049 8.21178 141.408 8.57034C141.789 8.9289 141.979 9.45554 141.979 10.1502V22.5542H142.046L147.593 16.7052C148.041 16.257 148.433 15.9096 148.769 15.6631C149.105 15.4166 149.565 15.2933 150.148 15.2933C150.73 15.2933 151.167 15.4502 151.459 15.764C151.772 16.0553 151.929 16.4138 151.929 16.8396C151.929 17.2654 151.727 17.6912 151.324 18.117L145.475 24.3022V22.5542L151.896 29.4789C152.299 29.9047 152.478 30.3417 152.433 30.7899C152.411 31.2156 152.232 31.5742 151.896 31.8655C151.559 32.1345 151.134 32.2689 150.618 32.2689C149.991 32.2689 149.486 32.1457 149.105 31.8992C148.747 31.6526 148.344 31.2829 147.895 30.7899L142.046 24.6719H141.979V30.1176C141.979 31.5518 141.273 32.2689 139.861 32.2689ZM161.047 32.3362C159.859 32.3362 158.795 32.1121 157.854 31.6638C156.935 31.1932 156.207 30.5658 155.669 29.7814C155.153 28.9971 154.896 28.1119 154.896 27.1258C154.896 25.9157 155.209 24.9633 155.837 24.2685C156.464 23.5514 157.484 23.036 158.896 22.7223C160.308 22.4085 162.201 22.2516 164.577 22.2516H166.258V24.6719H164.61C163.221 24.6719 162.112 24.7392 161.282 24.8736C160.453 25.0081 159.859 25.2434 159.501 25.5795C159.165 25.8933 158.997 26.3415 158.997 26.9241C158.997 27.6637 159.254 28.2687 159.77 28.7393C160.285 29.21 161.002 29.4453 161.921 29.4453C162.661 29.4453 163.311 29.2772 163.871 28.941C164.454 28.5825 164.913 28.1007 165.249 27.4956C165.585 26.8905 165.753 26.1958 165.753 25.4115V21.5457C165.753 20.4252 165.507 19.6185 165.014 19.1255C164.521 18.6324 163.692 18.3859 162.526 18.3859C161.876 18.3859 161.17 18.4644 160.409 18.6212C159.669 18.7781 158.885 19.047 158.055 19.428C157.63 19.6297 157.249 19.6857 156.913 19.5961C156.599 19.5064 156.352 19.3271 156.173 19.0582C155.994 18.7669 155.904 18.4532 155.904 18.117C155.904 17.7809 155.994 17.4559 156.173 17.1422C156.352 16.806 156.655 16.5595 157.081 16.4026C158.111 15.9768 159.098 15.6743 160.039 15.495C161.002 15.3158 161.876 15.2261 162.661 15.2261C164.274 15.2261 165.596 15.4726 166.627 15.9656C167.681 16.4587 168.465 17.2094 168.98 18.2178C169.496 19.2039 169.753 20.4813 169.753 22.05V30.1176C169.753 30.8123 169.585 31.3501 169.249 31.7311C168.913 32.0896 168.431 32.2689 167.804 32.2689C167.176 32.2689 166.683 32.0896 166.325 31.7311C165.989 31.3501 165.821 30.8123 165.821 30.1176V28.504H166.089C165.933 29.2884 165.619 29.9719 165.148 30.5546C164.7 31.1148 164.129 31.5518 163.434 31.8655C162.739 32.1793 161.944 32.3362 161.047 32.3362ZM180.035 32.3362C179.072 32.3362 178.052 32.2353 176.977 32.0336C175.901 31.8319 174.937 31.4846 174.086 30.9915C173.727 30.7674 173.469 30.5097 173.312 30.2184C173.178 29.9047 173.122 29.6021 173.144 29.3108C173.189 28.9971 173.301 28.7281 173.481 28.504C173.682 28.2799 173.929 28.1343 174.22 28.067C174.534 27.9998 174.87 28.0558 175.229 28.2351C176.125 28.6609 176.965 28.9634 177.75 29.1427C178.534 29.2996 179.307 29.378 180.069 29.378C181.145 29.378 181.94 29.1987 182.456 28.8402C182.994 28.4592 183.263 27.9662 183.263 27.3611C183.263 26.8457 183.083 26.4535 182.725 26.1846C182.389 25.8933 181.873 25.6804 181.178 25.5459L177.817 24.9072C176.427 24.6383 175.363 24.1341 174.623 23.3946C173.906 22.6326 173.548 21.6578 173.548 20.4701C173.548 19.3944 173.839 18.4644 174.422 17.68C175.027 16.8957 175.856 16.2906 176.909 15.8648C177.963 15.439 179.173 15.2261 180.54 15.2261C181.526 15.2261 182.445 15.3382 183.296 15.5623C184.17 15.764 185.01 16.0889 185.817 16.5371C186.153 16.7164 186.377 16.9517 186.49 17.243C186.624 17.5343 186.658 17.8369 186.59 18.1506C186.523 18.4419 186.389 18.7109 186.187 18.9574C185.985 19.1815 185.728 19.3271 185.414 19.3944C185.123 19.4392 184.786 19.372 184.405 19.1927C183.711 18.8341 183.038 18.5764 182.389 18.4195C181.761 18.2627 181.156 18.1842 180.573 18.1842C179.475 18.1842 178.657 18.3747 178.119 18.7557C177.604 19.1367 177.346 19.6409 177.346 20.2684C177.346 20.739 177.503 21.1311 177.817 21.4449C178.131 21.7586 178.612 21.9715 179.262 22.0836L182.624 22.7223C184.08 22.9912 185.179 23.4842 185.918 24.2013C186.68 24.9184 187.061 25.8821 187.061 27.0922C187.061 28.7281 186.422 30.0167 185.145 30.9579C183.868 31.8767 182.164 32.3362 180.035 32.3362ZM197.798 32.3362C196.341 32.3362 195.12 32.0896 194.134 31.5966C193.17 31.1036 192.453 30.3865 191.982 29.4453C191.512 28.4816 191.276 27.2939 191.276 25.8821V18.7221H189.528C188.99 18.7221 188.576 18.5876 188.285 18.3187C187.993 18.0274 187.848 17.6352 187.848 17.1422C187.848 16.6267 187.993 16.2346 188.285 15.9656C188.576 15.6967 188.99 15.5623 189.528 15.5623H191.276V12.5033C191.276 11.8086 191.456 11.282 191.814 10.9234C192.195 10.5648 192.722 10.3856 193.394 10.3856C194.066 10.3856 194.582 10.5648 194.94 10.9234C195.299 11.282 195.478 11.8086 195.478 12.5033V15.5623H199.041C199.579 15.5623 199.994 15.6967 200.285 15.9656C200.576 16.2346 200.722 16.6267 200.722 17.1422C200.722 17.6352 200.576 18.0274 200.285 18.3187C199.994 18.5876 199.579 18.7221 199.041 18.7221H195.478V25.6468C195.478 26.7224 195.713 27.5292 196.184 28.067C196.655 28.6049 197.417 28.8738 198.47 28.8738C198.851 28.8738 199.187 28.8402 199.478 28.773C199.77 28.7057 200.027 28.6609 200.251 28.6385C200.52 28.6161 200.744 28.7057 200.924 28.9074C201.103 29.0867 201.193 29.4677 201.193 30.0503C201.193 30.4985 201.114 30.9019 200.957 31.2605C200.823 31.5966 200.565 31.8319 200.184 31.9664C199.893 32.056 199.512 32.1345 199.041 32.2017C198.571 32.2913 198.156 32.3362 197.798 32.3362Z" fill="#1C1F25"/>
</svg>
