<svg width="28" height="26" viewBox="0 0 28 26" fill="none" xmlns="http://www.w3.org/2000/svg">
<path d="M20.3698 3.41547C19.9208 3.83908 19.489 4.24687 19.048 4.66315C19.0145 4.64309 18.9767 4.62303 18.942 4.59872C16.9042 3.1701 14.6443 2.50729 12.1689 2.59641C7.38377 2.76886 3.22345 6.1998 2.10306 10.8931C0.992982 15.5428 3.0884 20.3854 7.23805 22.7565C8.68802 23.5848 10.244 24.0451 11.9061 24.1709C17.0773 24.5617 21.8808 21.1115 23.1462 16.0351C23.89 13.0505 23.4205 10.2361 21.803 7.62303C21.7729 7.57403 21.742 7.52542 21.7118 7.47604C21.7054 7.46524 21.7019 7.4525 21.6874 7.41778C22.0834 6.96639 22.4862 6.5069 22.9135 6.01963C23.1004 6.30436 23.2778 6.55976 23.4399 6.8248C24.4493 8.47488 25.0474 10.265 25.2324 12.1979C25.7493 17.5926 22.7784 22.5636 18.0566 24.792C15.9421 25.7901 13.7189 26.1539 11.3938 25.9421C6.22829 25.4718 1.75783 21.6967 0.426879 16.6612C-1.16882 10.6223 1.82001 4.37766 7.51843 1.86223C9.55701 0.96215 11.6887 0.626887 13.9043 0.847181C16.2351 1.07905 18.3412 1.90158 20.2287 3.30127C20.2741 3.33522 20.3172 3.37264 20.3698 3.41547Z" fill="#387FF5"/>
<path d="M18.5113 6.25424C16.5959 8.33025 14.8743 10.5656 13.2073 12.8461C13.1676 12.9005 13.1257 12.9533 13.0742 13.0204C12.9452 12.8021 12.8316 12.6022 12.7106 12.4066C12.2315 11.6304 11.7173 10.8816 11.0261 10.277C10.5923 9.89776 10.1098 9.63889 9.51696 9.62732C8.78606 9.61304 8.11735 9.78048 7.55582 10.2762C7.2022 10.5883 6.97369 10.9761 6.88824 11.4672C6.9756 11.461 7.04427 11.4595 7.11255 11.4514C7.65119 11.3862 8.13718 11.5231 8.50072 11.9286C8.76661 12.2253 9.01342 12.5575 9.19119 12.9136C9.64018 13.8125 10.0541 14.7299 10.4664 15.6474C11.0234 16.8866 11.5514 18.1385 12.238 19.3144C12.3791 19.5559 12.531 19.6879 12.8056 19.6107C12.8796 19.5899 12.9697 19.5444 13.0063 19.4823C13.1928 19.1686 13.3546 18.8403 13.5419 18.5274C14.6516 16.6763 15.7655 14.8279 16.879 12.9792C17.9509 11.1991 19.1091 9.48032 20.4133 7.86381C21.705 6.26273 23.1027 4.76273 24.5359 3.29552L28 0C28 0 25.7329 0.429012 23.6627 1.74306C21.7332 2.99807 20.0692 4.56559 18.5113 6.25424Z" fill="#387FF5"/>
</svg>
